<svg width="288.3" height="43.621" viewBox="0 0 288.3 43.621" xmlns="http://www.w3.org/2000/svg">
  <style>
      @media (prefers-color-scheme: dark) {
          g {
              fill: #fff;
              stroke: #fff;
          }
      }
    </style>
    <g id="svgGroup" stroke-linecap="round" fill-rule="evenodd" font-size="9pt" stroke-width="0.4mm">
        <path
            d="M 9.96 42.96 L 0 42.96 L 0 0.66 L 9.18 0.66 L 22.68 24.9 L 36.18 0.66 L 45.12 0.66 L 45.12 42.96 L 35.16 42.96 L 35.16 19.98 L 25.5 36.72 L 19.5 36.72 L 9.96 20.22 L 9.96 42.96 Z M 111.6 42.96 L 101.34 42.96 L 101.34 0.66 L 109.44 0.66 L 128.88 24.9 L 128.88 0.66 L 139.08 0.66 L 139.08 42.96 L 131.04 42.96 L 111.6 18.72 L 111.6 42.96 Z M 261.18 42.96 L 250.14 42.96 L 250.14 0.66 L 270.48 0.66 A 23.698 23.698 0 0 1 274.853 1.038 Q 278.97 1.812 281.61 4.17 A 11.492 11.492 0 0 1 285.279 10.884 A 16.857 16.857 0 0 1 285.54 13.92 A 15.683 15.683 0 0 1 285.118 17.648 A 11.699 11.699 0 0 1 283.17 21.87 A 11.466 11.466 0 0 1 278.724 25.449 A 15.574 15.574 0 0 1 276.3 26.34 A 7.915 7.915 0 0 1 280.287 28.9 A 11.788 11.788 0 0 1 281.7 30.96 L 288.3 42.96 L 276.18 42.96 L 268.86 29.52 A 5.04 5.04 0 0 0 268.141 28.541 A 3.856 3.856 0 0 0 267.03 27.72 A 5.314 5.314 0 0 0 265.431 27.244 A 6.86 6.86 0 0 0 264.48 27.18 L 261.18 27.18 L 261.18 42.96 Z M 186.54 42.96 L 175.5 42.96 L 175.5 9.66 L 162.06 9.66 L 162.06 0.66 L 199.98 0.66 L 199.98 9.66 L 186.54 9.66 L 186.54 42.96 Z M 67.385 42.959 A 25.541 25.541 0 0 0 73.32 43.62 A 27.042 27.042 0 0 0 77.177 43.354 A 20.945 20.945 0 0 0 84.57 40.89 Q 89.4 38.16 92.1 33.24 A 21.091 21.091 0 0 0 94.167 27.736 A 26.83 26.83 0 0 0 94.8 21.78 A 28.249 28.249 0 0 0 94.451 17.258 A 21.365 21.365 0 0 0 92.1 10.29 Q 89.4 5.4 84.57 2.7 A 20.447 20.447 0 0 0 79.255 0.655 A 25.813 25.813 0 0 0 73.32 0 A 27.4 27.4 0 0 0 69.46 0.264 A 21.313 21.313 0 0 0 62.04 2.7 Q 57.18 5.4 54.51 10.29 A 21.04 21.04 0 0 0 52.427 15.969 A 27.511 27.511 0 0 0 51.84 21.78 A 28.212 28.212 0 0 0 52.131 25.898 A 21.707 21.707 0 0 0 54.54 33.24 Q 57.24 38.16 62.07 40.89 A 20.311 20.311 0 0 0 67.385 42.959 Z M 216.185 42.959 A 25.541 25.541 0 0 0 222.12 43.62 A 27.042 27.042 0 0 0 225.977 43.354 A 20.945 20.945 0 0 0 233.37 40.89 Q 238.2 38.16 240.9 33.24 A 21.091 21.091 0 0 0 242.967 27.736 A 26.83 26.83 0 0 0 243.6 21.78 A 28.249 28.249 0 0 0 243.251 17.258 A 21.365 21.365 0 0 0 240.9 10.29 Q 238.2 5.4 233.37 2.7 A 20.447 20.447 0 0 0 228.055 0.655 A 25.813 25.813 0 0 0 222.12 0 A 27.4 27.4 0 0 0 218.26 0.264 A 21.313 21.313 0 0 0 210.84 2.7 Q 205.98 5.4 203.31 10.29 A 21.04 21.04 0 0 0 201.227 15.969 A 27.511 27.511 0 0 0 200.64 21.78 A 28.212 28.212 0 0 0 200.931 25.898 A 21.707 21.707 0 0 0 203.34 33.24 Q 206.04 38.16 210.87 40.89 A 20.311 20.311 0 0 0 216.185 42.959 Z M 157.86 42.96 L 146.82 42.96 L 146.82 0.66 L 157.86 0.66 L 157.86 42.96 Z M 73.32 34.38 A 10.562 10.562 0 0 0 76.609 33.892 A 8.495 8.495 0 0 0 80.67 31.05 Q 83.34 27.72 83.34 21.78 A 21.507 21.507 0 0 0 83.056 18.167 Q 82.474 14.758 80.7 12.54 A 8.607 8.607 0 0 0 74.629 9.308 A 12.421 12.421 0 0 0 73.32 9.24 A 10.89 10.89 0 0 0 70.091 9.695 A 8.384 8.384 0 0 0 65.94 12.54 A 11.057 11.057 0 0 0 64.023 16.285 Q 63.549 17.851 63.385 19.728 A 23.713 23.713 0 0 0 63.3 21.78 A 21.565 21.565 0 0 0 63.584 25.398 Q 64.166 28.813 65.94 31.05 Q 68.58 34.38 73.32 34.38 Z M 222.12 34.38 A 10.562 10.562 0 0 0 225.409 33.892 A 8.495 8.495 0 0 0 229.47 31.05 Q 232.14 27.72 232.14 21.78 A 21.507 21.507 0 0 0 231.856 18.167 Q 231.274 14.758 229.5 12.54 A 8.607 8.607 0 0 0 223.429 9.308 A 12.421 12.421 0 0 0 222.12 9.24 A 10.89 10.89 0 0 0 218.891 9.695 A 8.384 8.384 0 0 0 214.74 12.54 A 11.057 11.057 0 0 0 212.823 16.285 Q 212.349 17.851 212.185 19.728 A 23.713 23.713 0 0 0 212.1 21.78 A 21.565 21.565 0 0 0 212.384 25.398 Q 212.966 28.813 214.74 31.05 Q 217.38 34.38 222.12 34.38 Z M 261.18 9.12 L 261.18 19.38 L 268.5 19.38 A 12.163 12.163 0 0 0 270.887 19.168 Q 275.04 18.332 275.04 14.22 Q 275.04 9.695 269.89 9.185 A 14.139 14.139 0 0 0 268.5 9.12 L 261.18 9.12 Z"
            vector-effect="non-scaling-stroke"
        />
    </g>
</svg>
