<svg width="290.64" height="43.622" viewBox="0 0 290.64 43.622" xmlns="http://www.w3.org/2000/svg">
  <style>
    @media (prefers-color-scheme: dark) {
        g {
            fill: #fff;
            stroke: #fff;
        }
    }
  </style>
  <g id="svgGroup" stroke-linecap="round" fill-rule="evenodd" font-size="9pt" stroke-width="0.1mm">
    <path d="M 34.8 0.721 L 51.06 0.721 L 51.06 43.201 L 37.8 43.201 L 37.8 22.021 L 31.26 43.201 L 19.86 43.201 L 13.32 22.021 L 13.32 43.201 L 0 43.201 L 0 0.721 L 16.32 0.721 L 25.68 26.221 L 34.8 0.721 Z M 145.08 0.721 L 145.08 43.201 L 131.76 43.201 L 117.66 21.841 L 117.66 43.201 L 104.34 43.201 L 104.34 0.721 L 117.66 0.721 L 131.76 22.441 L 131.76 0.721 L 145.08 0.721 Z M 290.64 43.201 L 276 43.201 L 268.02 27.961 L 267.96 27.961 L 267.96 43.201 L 254.64 43.201 L 254.64 0.721 L 274.44 0.721 A 24.32 24.32 0 0 1 278.527 1.047 Q 281.144 1.493 283.26 2.551 A 14.119 14.119 0 0 1 286.505 4.75 A 11.769 11.769 0 0 1 288.75 7.531 A 13.627 13.627 0 0 1 290.55 13.634 A 16.495 16.495 0 0 1 290.58 14.641 Q 290.58 18.901 288.21 22.201 A 12.285 12.285 0 0 1 283.552 26.075 A 16.216 16.216 0 0 1 281.4 26.941 L 290.64 43.201 Z M 168 0.721 L 203.76 0.721 L 203.76 11.281 L 192.48 11.281 L 192.48 43.201 L 179.16 43.201 L 179.16 11.281 L 168 11.281 L 168 0.721 Z M 77.76 43.621 Q 71.76 43.621 66.75 40.801 Q 61.74 37.981 58.8 33.001 A 21.341 21.341 0 0 1 55.89 23.036 A 25.707 25.707 0 0 1 55.86 21.781 A 22.737 22.737 0 0 1 57.008 14.473 A 20.643 20.643 0 0 1 58.8 10.561 Q 61.74 5.581 66.75 2.791 Q 71.76 0.001 77.76 0.001 Q 83.76 0.001 88.74 2.791 Q 93.72 5.581 96.63 10.561 A 21.437 21.437 0 0 1 99.495 20.241 A 25.799 25.799 0 0 1 99.54 21.781 A 22.952 22.952 0 0 1 98.403 29.089 A 20.745 20.745 0 0 1 96.63 33.001 Q 93.72 37.981 88.71 40.801 Q 83.7 43.621 77.76 43.621 Z M 228.06 43.621 Q 222.06 43.621 217.05 40.801 Q 212.04 37.981 209.1 33.001 A 21.341 21.341 0 0 1 206.19 23.036 A 25.707 25.707 0 0 1 206.16 21.781 A 22.737 22.737 0 0 1 207.308 14.473 A 20.643 20.643 0 0 1 209.1 10.561 Q 212.04 5.581 217.05 2.791 Q 222.06 0.001 228.06 0.001 Q 234.06 0.001 239.04 2.791 Q 244.02 5.581 246.93 10.561 A 21.437 21.437 0 0 1 249.795 20.241 A 25.799 25.799 0 0 1 249.84 21.781 A 22.952 22.952 0 0 1 248.703 29.089 A 20.745 20.745 0 0 1 246.93 33.001 Q 244.02 37.981 239.01 40.801 Q 234 43.621 228.06 43.621 Z M 151.08 0.721 L 164.4 0.721 L 164.4 43.201 L 151.08 43.201 L 151.08 0.721 Z M 77.76 31.201 A 9.829 9.829 0 0 0 80.322 30.886 A 6.899 6.899 0 0 0 83.88 28.651 A 8.68 8.68 0 0 0 85.627 25.222 Q 85.962 23.962 86.025 22.478 A 16.435 16.435 0 0 0 86.04 21.781 Q 86.04 18.299 84.675 15.974 A 7.994 7.994 0 0 0 83.88 14.851 Q 81.72 12.301 77.76 12.301 Q 73.74 12.301 71.58 14.851 Q 69.42 17.401 69.42 21.781 Q 69.42 25.313 70.864 27.662 A 8.051 8.051 0 0 0 71.58 28.651 A 7.012 7.012 0 0 0 75.701 31.011 A 10.569 10.569 0 0 0 77.76 31.201 Z M 228.06 31.201 A 9.829 9.829 0 0 0 230.622 30.886 A 6.899 6.899 0 0 0 234.18 28.651 A 8.68 8.68 0 0 0 235.927 25.222 Q 236.262 23.962 236.325 22.478 A 16.435 16.435 0 0 0 236.34 21.781 Q 236.34 18.299 234.975 15.974 A 7.994 7.994 0 0 0 234.18 14.851 Q 232.02 12.301 228.06 12.301 Q 224.04 12.301 221.88 14.851 Q 219.72 17.401 219.72 21.781 Q 219.72 25.313 221.164 27.662 A 8.051 8.051 0 0 0 221.88 28.651 A 7.012 7.012 0 0 0 226.001 31.011 A 10.569 10.569 0 0 0 228.06 31.201 Z M 267.96 11.881 L 267.96 19.081 L 273.24 19.081 A 6.778 6.778 0 0 0 274.295 19.005 Q 274.852 18.917 275.298 18.728 A 2.894 2.894 0 0 0 276.12 18.211 Q 276.907 17.498 277.049 16.118 A 6.245 6.245 0 0 0 277.08 15.481 A 4.589 4.589 0 0 0 276.954 14.372 A 3.139 3.139 0 0 0 276.09 12.841 Q 275.216 11.994 273.663 11.894 A 6.642 6.642 0 0 0 273.24 11.881 L 267.96 11.881 Z" vector-effect="non-scaling-stroke"/>
  </g>
</svg>